<?xml version="1.0" encoding="utf-8"?>
<!-- Generator: Adobe Illustrator 25.3.1, SVG Export Plug-In . SVG Version: 6.00 Build 0)  -->
<svg version="1.1" id="图层_1" xmlns="http://www.w3.org/2000/svg" xmlns:xlink="http://www.w3.org/1999/xlink" x="0px" y="0px"
	 viewBox="0 0 200 200" style="enable-background:new 0 0 200 200;" xml:space="preserve">
<style type="text/css">
	.st0{fill:#707070;}
</style>
<path class="st0" d="M162.1,178H37.9C19.7,178,5,162.5,5,143.5v-87C5,37.5,19.7,22,37.9,22h124.3c18.1,0,32.9,15.5,32.9,34.5v87
	C195,162.5,180.3,178,162.1,178z M37.9,35.4c-11.1,0-20,9.4-20,21.1v87c0,11.6,9,21.1,20,21.1h124.3c11.1,0,20-9.4,20-21.1v-87
	c0-11.6-9-21.1-20-21.1C162.1,35.4,37.9,35.4,37.9,35.4z M127.1,70.2H37.8c-3.6,0-6.4-3.1-6.4-6.7s2.9-6.7,6.4-6.7H127
	c3.6,0,6.4,3.1,6.4,6.7S130.6,70.2,127.1,70.2z M95.2,101.1H37.8c-3.6,0-6.4-3.1-6.4-6.7c0-3.8,2.9-6.7,6.4-6.7h57.5
	c3.6,0,6.4,3.1,6.4,6.7C101.7,98.1,98.8,101.1,95.2,101.1z M143,136.7c0,7,5.4,12.6,12.1,12.6c6.6,0,12.1-5.7,12.1-12.6
	s-5.4-12.6-12.1-12.6C148.4,124.1,143,129.8,143,136.7z"/>
</svg>
