<?xml version="1.0" encoding="utf-8"?>
<!-- Generator: Adobe Illustrator 25.3.1, SVG Export Plug-In . SVG Version: 6.00 Build 0)  -->
<svg version="1.1" id="图层_1" xmlns="http://www.w3.org/2000/svg" xmlns:xlink="http://www.w3.org/1999/xlink" x="0px" y="0px"
	 viewBox="0 0 200 200" style="enable-background:new 0 0 200 200;" xml:space="preserve">
<style type="text/css">
	.st0{fill:#FFE43C;}
	.st1{fill:#00F5D4;}
	.st2{fill:#01BEFF;}
	.st3{fill:#9A5CE5;}
	.st4{fill:#F15BB5;}
	.st5{opacity:0.2;fill:#FFFFFF;enable-background:new    ;}
	.st6{opacity:0.5;fill:#FFFFFF;enable-background:new    ;}
	.st7{fill:#FFFFFF;}
	.st8{opacity:0.6;fill:#FFFFFF;enable-background:new    ;}
	.st9{opacity:0.8;fill:#FFFFFF;enable-background:new    ;}
	.st10{fill:#FFDEEB;}
</style>
<path class="st0" d="M150,200H50c-27.5,0-50-22.5-50-50V50C0,22.5,22.5,0,50,0h100c27.5,0,50,22.5,50,50v100
	C200,177.5,177.5,200,150,200z"/>
<path class="st1" d="M160,0h-55.6C55.8,11.8,16.6,47.4,0,94.5V160c0,22.1,17.9,40,40,40h120c22.1,0,40-17.9,40-40V40
	C200,17.9,182.1,0,160,0z"/>
<path class="st2" d="M160,0h-0.7C79.6,17.2,29,95.7,46.2,175.3c1.8,8.4,4.4,16.7,7.6,24.7H160c22.1,0,40-17.9,40-40V40
	C200,17.9,182.1,0,160,0z"/>
<path class="st3" d="M193.8,18.5c-2.9-4.5-6.6-8.5-11.2-11.6c-52.1,24.2-85.5,76.4-85.5,133.9c0,20.4,4.2,40.5,12.4,59.1H160
	c3.8,0,7.4-0.5,10.9-1.5c-13.1-19.9-21.3-47.6-21.3-78.3C149.6,74.3,167.8,35,193.8,18.5L193.8,18.5z"/>
<path class="st4" d="M200,160V40c0-7.7-2.2-15.1-6.2-21.4c-25.9,16.5-44.2,55.8-44.2,101.7c0,30.6,8.1,58.3,21.3,78.3
	C187.7,193.8,200,178.3,200,160L200,160z"/>
<path class="st5" d="M166.5,138.9c-17.5,4.9-26.1,13.4-38.1,19.3c9.4,2.1,18.8,2.8,29.7,2.8c16,0,32.5-8.8,38.8-15.3v-6.6
	C187.3,136.7,180.9,134.8,166.5,138.9L166.5,138.9z M31.9,134C31.9,134,31.9,134,31.9,134c-10.5-5.3-20.5-7.3-28.9-7.9v15.1
	C7.7,139.1,17.5,135.6,31.9,134z M107,164.3c8.9-1,15.6-3.2,21.4-6.1c-6.4-1.4-12.9-3.5-19.8-6.5c-16.8-7.3-34.1-18.8-63.6-18.4
	c-4.7,0.1-9.1,0.4-13.1,0.8C59.2,147.7,79.7,167.2,107,164.3z"/>
<path class="st5" d="M128.4,158.2c-5.8,2.9-12.5,5.1-21.4,6.1c-27.3,2.9-47.8-16.6-75.1-30.2c-14.4,1.6-24.2,5.1-28.9,7.1v17
	C3,184.1,15.9,197,41.8,197h116.4c25.9,0,38.8-12.9,38.8-38.8v-12.5c-6.3,6.5-22.8,15.3-38.8,15.3
	C147.3,161,137.9,160.3,128.4,158.2L128.4,158.2z"/>
<path class="st5" d="M128.4,158.2c-5.8,2.9-12.5,5.1-21.4,6.1c-27.3,2.9-47.8-16.6-75.1-30.2c-14.4,1.6-24.2,5.1-28.9,7.1v17
	C3,184.1,15.9,197,41.8,197h116.4c25.9,0,38.8-12.9,38.8-38.8v-12.5c-6.3,6.5-22.8,15.3-38.8,15.3
	C147.3,161,137.9,160.3,128.4,158.2L128.4,158.2z"/>
<path class="st6" d="M24.1,118.9c0,2,1.6,3.7,3.7,3.7c2,0,3.7-1.6,3.7-3.7c0,0,0,0,0,0c0-2-1.6-3.7-3.7-3.7
	C25.7,115.3,24.1,116.9,24.1,118.9C24.1,118.9,24.1,118.9,24.1,118.9z"/>
<path class="st6" d="M179,89.5c0,2,1.6,3.7,3.7,3.7c2,0,3.7-1.6,3.7-3.7c0,0,0,0,0,0c0-2-1.6-3.7-3.7-3.7
	C180.6,85.8,179,87.4,179,89.5C179,89.5,179,89.5,179,89.5z"/>
<path class="st7" d="M0,0"/>
<path class="st7" d="M61.9,10.5c0,1,0.8,1.9,1.9,1.9c1,0,1.9-0.8,1.9-1.9c0,0,0,0,0,0c0-1-0.8-1.9-1.9-1.9
	C62.7,8.7,61.9,9.5,61.9,10.5C61.9,10.5,61.9,10.5,61.9,10.5z"/>
<path class="st7" d="M19.2,66.4c0,1,0.8,1.8,1.8,1.8s1.8-0.8,1.8-1.8c0-1-0.8-1.8-1.8-1.8S19.2,65.4,19.2,66.4z"/>
<path class="st8" d="M189.1,59.8c0,1,0.8,1.8,1.8,1.8c1,0,1.8-0.8,1.8-1.8c0,0,0,0,0,0c0-1-0.8-1.8-1.8-1.8
	C190,58,189.1,58.8,189.1,59.8C189.1,59.8,189.1,59.8,189.1,59.8z"/>
<path class="st9" d="M180.3,129.6c0,1.7,1.4,3,3,3c1.7,0,3-1.4,3-3c0-1.7-1.4-3-3-3C181.6,126.6,180.3,127.9,180.3,129.6z"/>
<path class="st9" d="M96.6,10.1c1.7,0.3,3.3-0.9,3.6-2.6s-0.9-3.3-2.6-3.6c0,0,0,0,0,0c-1.7-0.3-3.3,0.9-3.6,2.6S94.9,9.8,96.6,10.1
	C96.6,10.1,96.6,10.1,96.6,10.1z"/>
<path class="st10" d="M166.7,82.1l-44.2-6.4l-19.7-39.9c-0.3-0.6-0.9-1.1-1.5-1.4c-1.6-0.7-3.4,0-4.1,1.6L77.5,75.9l-44.1,6.4
	c-0.5,0.1-1,0.4-1.4,0.7c-1.3,1.1-1.4,3.1-0.3,4.4l31.9,31.1l-7.4,43.9c-0.1,0.7,0,1.3,0.3,1.9c0.8,1.5,2.7,2.2,4.2,1.4l39.4-20.5
	l39.4,20.5c0.6,0.3,1.3,0.4,1.9,0.3c1.7-0.3,2.9-1.9,2.6-3.6l-7.5-43.9l32-31.3c0.4-0.4,0.6-0.9,0.7-1.4
	C169.5,84.1,168.4,82.5,166.7,82.1z M113.7,107.7l-4.9,4.9l-6.5,6.5c-1.3,1.3-3.3,1.3-4.6,0l-6.6-6.6l-4.8-4.8
	c-3.8-3.8-3.8-10,0-13.9c3.8-3.8,9.9-3.8,13.7-0.2c3.8-3.7,9.9-3.6,13.7,0.2C117.6,97.7,117.6,103.9,113.7,107.7L113.7,107.7z"/>
<path class="st7" d="M122.8,75.6l-20-39.8c-0.8-1.6-2.7-2.2-4.2-1.4c-0.6,0.3-1.1,0.8-1.4,1.4L77.5,75.7l-44.2,6.4
	c-1.7,0.3-2.8,2-2.5,3.7c0.1,0.5,0.4,1,0.7,1.4l32,31.3l-3,17.5c30.2-1.2,57.2-19,70.3-46.2c2-4,3.7-8.1,5.1-12.3
	C135.9,77.5,122.8,75.6,122.8,75.6z M113.7,107.7l-4.9,4.9l-6.5,6.5c-1.3,1.3-3.3,1.3-4.6,0l-6.6-6.6l-4.8-4.8
	c-3.8-3.8-3.8-10,0-13.9c3.8-3.8,9.9-3.8,13.7-0.2c3.8-3.7,9.9-3.6,13.7,0.2C117.6,97.7,117.6,103.9,113.7,107.7L113.7,107.7z"/>
</svg>
