<?xml version="1.0" encoding="utf-8"?>
<!-- Generator: Adobe Illustrator 25.3.1, SVG Export Plug-In . SVG Version: 6.00 Build 0)  -->
<svg version="1.1" id="图层_1" xmlns="http://www.w3.org/2000/svg" xmlns:xlink="http://www.w3.org/1999/xlink" x="0px" y="0px"
	 viewBox="0 0 200 200" style="enable-background:new 0 0 200 200;" xml:space="preserve">
<style type="text/css">
	.st0{fill:#EC752E;}
</style>
<path class="st0" d="M185.1,76.3l-73.6-56.6c-6.7-5.2-16.1-5.2-22.9,0L14.9,76.3c-2.7,2.1-3.2,6-1.2,8.8c2.1,2.7,6,3.2,8.8,1.2
	l5.6-4.3V150c0,17.2,14,31.2,31.3,31.2H75c6.9,0,12.5-5.6,12.5-12.5V125c0-3.4,2.8-6.2,6.2-6.2h12.5c3.4,0,6.2,2.8,6.2,6.2v43.8
	c0,6.9,5.6,12.5,12.5,12.5h15.6c17.2,0,31.2-14,31.2-31.2V81.9l5.6,4.3c1.1,0.9,2.5,1.3,3.8,1.3c1.9,0,3.7-0.8,5-2.4
	C188.3,82.3,187.8,78.4,185.1,76.3L185.1,76.3z M159.4,150c0,10.3-8.4,18.8-18.8,18.8H125V125c0-10.3-8.4-18.8-18.8-18.8H93.8
	c-10.3,0-18.8,8.4-18.8,18.8v43.8H59.4c-10.3,0-18.8-8.4-18.8-18.8V72.3l55.6-42.7c2.2-1.7,5.4-1.7,7.6,0l55.6,42.7V150z"/>
<polygon class="st0" points="100,21 159.4,72.3 159.4,165 150,168.8 125,168.8 123,112 78.9,113.6 75,168.8 59.4,168.8 40.6,168.8 
	40.6,72.3 "/>
<polygon class="st0" points="125.3,98.5 133.7,127.6 118.9,117.3 109.4,101.2 "/>
</svg>
