<?xml version="1.0" encoding="utf-8"?>
<!-- Generator: Adobe Illustrator 25.3.1, SVG Export Plug-In . SVG Version: 6.00 Build 0)  -->
<svg version="1.1" id="图层_1" xmlns="http://www.w3.org/2000/svg" xmlns:xlink="http://www.w3.org/1999/xlink" x="0px" y="0px"
	 viewBox="0 0 200 200" style="enable-background:new 0 0 200 200;" xml:space="preserve">
<style type="text/css">
	.st0{fill:#FFFFFF;stroke:#707070;stroke-width:12;stroke-miterlimit:10;}
</style>
<path class="st0" d="M154,17.6H46c-20,0-37.4,17.3-37.4,37.4v74.7c0,20,17.3,37.4,37.4,37.4h4c0,0,0,1.3,1.3,1.3l14.7,16
	c2.7,2.7,6.7,2.7,8,0l13.3-14.7l1.3-1.3H154c20,0,37.4-17.3,37.4-37.4V55C191.4,34.9,174.1,17.6,154,17.6z M48.6,107
	c-8,0-13.3-6.7-13.3-14.7S42,77.6,50,77.6s14.7,6.7,14.7,14.7C63.3,100.3,56.6,107,48.6,107z M99.3,107c-8,0-14.7-6.7-14.7-14.7
	s6.7-14.7,14.7-14.7S114,84.3,114,92.3S107.3,107,99.3,107z M151.4,107c-8,0-14.7-6.7-14.7-14.7s6.7-14.7,14.7-14.7
	s14.7,6.7,14.7,14.7C164.7,100.3,158,107,151.4,107z"/>
</svg>
