<?xml version="1.0" encoding="utf-8"?>
<!-- Generator: Adobe Illustrator 25.3.1, SVG Export Plug-In . SVG Version: 6.00 Build 0)  -->
<svg version="1.1" id="图层_1" xmlns="http://www.w3.org/2000/svg" xmlns:xlink="http://www.w3.org/1999/xlink" x="0px" y="0px"
	 viewBox="0 0 200 200" style="enable-background:new 0 0 200 200;" xml:space="preserve">
<style type="text/css">
	.st0{fill:none;stroke:#707070;stroke-width:12;stroke-miterlimit:10;}
</style>
<path class="st0" d="M154,18.6H46C26,18.6,8.6,35.9,8.6,56v74.7c0,20,17.3,37.4,37.4,37.4h4c0,0,0,1.3,1.3,1.3l14.7,16
	c2.7,2.7,6.7,2.7,8,0l13.3-14.7l1.3-1.3H154c20,0,37.4-17.3,37.4-37.4V56C191.4,35.9,174.1,18.6,154,18.6z M48.6,108
	c-8,0-13.3-6.7-13.3-14.7S42,78.6,50,78.6s14.7,6.7,14.7,14.7C63.3,101.3,56.6,108,48.6,108z M99.3,108c-8,0-14.7-6.7-14.7-14.7
	s6.7-14.7,14.7-14.7S114,85.3,114,93.3S107.3,108,99.3,108z M151.4,108c-8,0-14.7-6.7-14.7-14.7s6.7-14.7,14.7-14.7
	s14.7,6.7,14.7,14.7C164.7,101.3,158,108,151.4,108z"/>
</svg>
