<?xml version="1.0" encoding="utf-8"?>
<!-- Generator: Adobe Illustrator 25.3.1, SVG Export Plug-In . SVG Version: 6.00 Build 0)  -->
<svg version="1.1" id="图层_1" xmlns="http://www.w3.org/2000/svg" xmlns:xlink="http://www.w3.org/1999/xlink" x="0px" y="0px"
	 viewBox="0 0 200 200" style="enable-background:new 0 0 200 200;" xml:space="preserve">
<style type="text/css">
	.st0{fill:#EC752E;}
</style>
<path class="st0" d="M157,10.9H43c-21.1,0-39.4,18.3-39.4,39.4v78.9c0,21.1,18.3,39.4,39.4,39.4h4.2c0,0,0,1.4,1.4,1.4L64.1,187
	c2.8,2.8,7,2.8,8.4,0l14.1-15.5l1.4-1.4h69c21.1,0,39.4-18.3,39.4-39.4V50.4C196.5,29.2,178.1,10.9,157,10.9z M45.8,105.3
	c-8.4,0-14.1-7-14.1-15.5s7-15.5,15.5-15.5s15.5,7,15.5,15.5C61.3,98.2,54.2,105.3,45.8,105.3z M99.3,105.3c-8.4,0-15.5-7-15.5-15.5
	s7-15.5,15.5-15.5s15.5,7,15.5,15.5S107.7,105.3,99.3,105.3z M154.2,105.3c-8.4,0-15.5-7-15.5-15.5s7-15.5,15.5-15.5
	s15.5,7,15.5,15.5C168.3,98.2,161.3,105.3,154.2,105.3z"/>
</svg>
