<?xml version="1.0" encoding="utf-8"?>
<!-- Generator: Adobe Illustrator 25.3.1, SVG Export Plug-In . SVG Version: 6.00 Build 0)  -->
<svg version="1.1" id="图层_1" xmlns="http://www.w3.org/2000/svg" xmlns:xlink="http://www.w3.org/1999/xlink" x="0px" y="0px"
	 viewBox="0 0 200 200" style="enable-background:new 0 0 200 200;" xml:space="preserve">
<style type="text/css">
	.st0{fill:#FF7E00;}
	.st1{fill:#FFDABB;}
</style>
<path class="st0" d="M71.1,173.1c-3.2,0-5.8-2.6-5.8-5.8v-22c-25.7-11-42.1-33.6-42.1-58.6c0-36.1,34-65.4,75.9-65.4
	S175,50.6,175,86.6c0,35.5-33,64.5-73.9,65.4l-26.4,19.9C73.6,172.6,72.4,173.1,71.1,173.1z M97.7,144.9l3.3-0.1
	c38-0.8,67.9-27.3,67.9-58.7c0-32-31-58.7-69.8-58.7S29.3,54.2,29.3,86.2c0,22,14.6,42.3,38.2,52.4l6.2,2.6V163
	C73.7,163,97.7,144.9,97.7,144.9z"/>
<path class="st0" d="M78.6,109.1c-0.1,0.2-0.1,0.4-0.2,0.6c-0.8,1.6-2.6,2.3-4.1,1.5c-12.8-7-19.7-23.1-20-23.8
	c-0.7-1.6,0-3.6,1.5-4.4s3.3-0.2,4,1.4c0.1,0.2,6.4,14.9,17.4,20.9C78.5,106,79,107.6,78.6,109.1z M89.5,115.6
	c0,0.1-0.1,0.3-0.1,0.4c-0.7,1.7-2.6,2.4-4.1,1.7l-3.3-1.6c-1.5-0.7-2.1-2.6-1.4-4.3c0.7-1.7,2.6-2.4,4.1-1.7l3.3,1.6
	C89.3,112.4,90,114,89.5,115.6z"/>
<path class="st1" d="M97.7,144.9c0,0,35.8,1.9,58.6-25.2c22.1-25.8,8.4-53.5,9.7-50.2l-6.1,22c-4,5.6-0.7,13.6-36.2,41.9"/>
<path class="st0" d="M140.7,134.4c-0.4,0-0.8-0.1-1.1-0.3l-6.1-4.7c-0.6-0.5-0.6-1.2,0-1.7c0.6-0.5,1.6-0.5,2.2,0l6.1,4.7
	c0.6,0.5,0.6,1.2,0,1.7C141.5,134.3,141.1,134.4,140.7,134.4z M146.5,131c-0.4,0-0.8-0.1-1.1-0.3l-6.6-5c-0.6-0.5-0.6-1.2,0-1.7
	c0.6-0.5,1.6-0.5,2.2,0l6.6,5c0.6,0.5,0.6,1.2,0,1.7C147.3,130.9,146.9,131,146.5,131L146.5,131z M152.2,127.9
	c-0.4,0-0.8-0.1-1.1-0.3l-7.1-5.4c-0.6-0.5-0.6-1.2,0-1.7c0.6-0.5,1.6-0.5,2.2,0l7.1,5.4c0.6,0.5,0.6,1.2,0,1.7
	C153,127.8,152.6,127.9,152.2,127.9z M157,124.2c-0.4,0-0.8-0.1-1.1-0.3l-7.1-5.4c-0.6-0.5-0.6-1.2,0-1.7c0.6-0.5,1.6-0.5,2.2,0
	l7.1,5.4c0.6,0.5,0.6,1.2,0,1.7C157.8,124.1,157.4,124.2,157,124.2z M162.8,114.1c-0.4,0-0.8-0.1-1.1-0.3l-6.1-4.7
	c-0.6-0.5-0.6-1.2,0-1.7c0.6-0.5,1.6-0.5,2.2,0l6.1,4.7c0.6,0.5,0.6,1.2,0,1.7C163.6,114,163.2,114.1,162.8,114.1z M165.7,109.3
	c-0.4,0-0.8-0.1-1.1-0.3l-6.1-4.7c-0.6-0.5-0.6-1.2,0-1.7c0.6-0.5,1.6-0.5,2.2,0l6.1,4.7c0.6,0.5,0.6,1.2,0,1.7
	C166.5,109.2,166.1,109.3,165.7,109.3z M168.2,103.1c-0.4,0-0.8-0.1-1.1-0.3l-5.1-3.9c-0.6-0.5-0.6-1.2,0-1.7c0.6-0.5,1.6-0.5,2.2,0
	l5.1,3.9c0.6,0.5,0.6,1.2,0,1.7C169,103,168.6,103.1,168.2,103.1z M169.5,96.7c-0.4,0-0.8-0.1-1.1-0.3l-4.6-3.5
	c-0.6-0.5-0.6-1.2,0-1.7c0.6-0.5,1.6-0.5,2.2,0l4.6,3.5c0.6,0.5,0.6,1.2,0,1.7C170.3,96.6,169.9,96.7,169.5,96.7z M169.4,90.5
	c-0.4,0-0.8-0.1-1.1-0.3l-3.4-2.6c-0.6-0.5-0.6-1.2,0-1.7c0.6-0.5,1.6-0.5,2.2,0l3.4,2.6c0.6,0.5,0.6,1.2,0,1.7
	C170.1,90.4,169.7,90.5,169.4,90.5z M169.7,85.3c-0.4,0-0.8-0.1-1.1-0.3l-3.4-2.6c-0.6-0.5-0.6-1.2,0-1.7c0.6-0.5,1.6-0.5,2.2,0
	l3.4,2.6c0.6,0.5,0.6,1.2,0,1.7C170.5,85.2,170.1,85.3,169.7,85.3z M135.8,137.9c-0.4,0-0.8-0.1-1.1-0.3l-5.7-4.4
	c-0.6-0.5-0.6-1.2,0-1.7c0.6-0.5,1.6-0.5,2.2,0l5.7,4.4c0.6,0.5,0.6,1.2,0,1.7C136.6,137.8,136.2,137.9,135.8,137.9z M130.9,141.5
	c-0.4,0-0.8-0.1-1.1-0.3l-5.8-4.4c-0.6-0.5-0.6-1.2,0-1.7c0.6-0.5,1.6-0.5,2.2,0l5.8,4.4c0.6,0.5,0.6,1.2,0,1.7
	C131.7,141.4,131.3,141.5,130.9,141.5z M124,144.1c-0.4,0-0.8-0.1-1.1-0.3l-5.8-4.5c-0.6-0.5-0.6-1.2,0-1.7c0.6-0.5,1.6-0.5,2.2,0
	l5.8,4.5c0.6,0.5,0.6,1.2,0,1.7C124.8,144,124.4,144.1,124,144.1z M116.2,145.3c-0.4,0-0.8-0.1-1.1-0.3l-4-3c-0.6-0.5-0.6-1.2,0-1.7
	c0.6-0.5,1.6-0.5,2.2,0l4,3c0.6,0.5,0.6,1.2,0,1.7C116.9,145.2,116.6,145.3,116.2,145.3z M110.5,147.4c-0.4,0-0.8-0.1-1.1-0.3l-4-3
	c-0.6-0.5-0.6-1.2,0-1.7c0.6-0.5,1.6-0.5,2.2,0l4,3c0.6,0.5,0.6,1.2,0,1.7C111.2,147.3,110.9,147.4,110.5,147.4z M160,119
	c-0.4,0-0.8-0.1-1.1-0.3l-7.1-5.4c-0.6-0.5-0.6-1.2,0-1.7c0.6-0.5,1.6-0.5,2.2,0l7.1,5.4c0.6,0.5,0.6,1.2,0,1.7
	C160.8,118.9,160.4,119,160,119z"/>
</svg>
