<?xml version="1.0" standalone="no"?><!DOCTYPE svg PUBLIC "-//W3C//DTD SVG 1.1//EN" "http://www.w3.org/Graphics/SVG/1.1/DTD/svg11.dtd"><svg class="icon" width="200px" height="200.00px" viewBox="0 0 1024 1024" version="1.1" xmlns="http://www.w3.org/2000/svg"><path d="M186.24 0h651.52Q1024 0 1024 186.24v651.52Q1024 1024 837.76 1024H186.24Q0 1024 0 837.76V186.24Q0 0 186.24 0z" fill="#3689F5" /><path d="M796.8 568.32l-50.24-38.72a215.36 215.36 0 0 0 0-35.2l50.56-38.4a35.2 35.2 0 0 0 8.64-45.44l-56.32-96a36.48 36.48 0 0 0-43.84-16l-60.48 23.68a256 256 0 0 0-32-17.92l-9.28-61.44a35.2 35.2 0 0 0-35.52-30.08h-113.28a34.88 34.88 0 0 0-35.52 29.76l-9.28 62.08a252.48 252.48 0 0 0-32 17.6L320 299.52a35.52 35.52 0 0 0-43.84 15.04l-56.96 96a34.24 34.24 0 0 0 8.96 45.12l50.24 38.72a167.68 167.68 0 0 0 0 17.6v17.6l-50.56 38.4a34.88 34.88 0 0 0-8.64 45.44l56.64 96a36.8 36.8 0 0 0 43.84 16l60.48-23.68a201.6 201.6 0 0 0 32 17.6l8.96 61.44a35.2 35.2 0 0 0 35.52 30.4h113.92a34.88 34.88 0 0 0 35.52-29.76l9.28-62.08a231.36 231.36 0 0 0 32-17.6l59.84 23.36a36.48 36.48 0 0 0 44.16-15.04l56.96-96a34.56 34.56 0 0 0-11.52-45.76z m-81.6 114.24L640 652.8l-9.6 7.04a208.64 208.64 0 0 1-43.52 24.64l-11.52 4.48-12.8 79.04h-100.8l-11.52-78.72-11.84-4.8a183.04 183.04 0 0 1-42.88-24.32l-9.92-7.36-76.16 29.76-50.24-85.12 64-49.28v-11.84A212.48 212.48 0 0 1 320 512a216.96 216.96 0 0 1 1.6-24.64v-11.84l-64-49.28 50.24-84.8 76.16 29.76 9.6-7.04a195.2 195.2 0 0 1 43.52-24.64l11.52-4.8 13.12-78.72h100.8l11.52 78.72 11.52 4.48a205.12 205.12 0 0 1 43.2 24.32l9.6 7.36 76.16-29.76 50.88 85.12-64 49.28 1.6 11.84a160 160 0 0 1 0 49.28l-1.6 11.84 64 49.28zM736 709.76zM288 313.28z" fill="#FFFFFF" /><path d="M512 400a112 112 0 1 0 112.64 112A112 112 0 0 0 512 400z m0 183.68A71.68 71.68 0 1 1 584.32 512 71.68 71.68 0 0 1 512 583.68z" fill="#FFFFFF" /></svg>